# xmcd CD database file
#
# Track frame offsets:
#	150
#	24602
#	65920
#	101587
#	131190
#	150577
#	164692
#	195872
#	222352
#	277070
#
# Disc length: 4427 seconds
#
# Revision: 1
# Processed by: cddbd v1.4PL0 Copyright (c) Steve Scherf et al.
# Submitted via: CDex 1.50
#
DISCID=9711490a
DTITLE=Allman Brothers Band - New Jersey 1994 - Live
DYEAR=1994
DGENRE=Southern Rock
TTITLE0=Statesboro Blues
TTITLE1=Blue Sky
TTITLE2=Same Thing
TTITLE3=Soulshine
TTITLE4=Seven Turns
TTITLE5=Midnight Rider
TTITLE6=Southbound
TTITLE7=No One To Run With
TTITLE8=Back Where It All Begins
TTITLE9=One Way Out
EXTD=recorded live at the garden state art centre in homedale,\nnew jersey, USA august 16,1994\n\n- the original artists concert series - YEAR: 1994
EXTT0=
EXTT1=
EXTT2=
EXTT3=
EXTT4=
EXTT5=
EXTT6=
EXTT7=
EXTT8=
EXTT9=
PLAYORDER=
